<?xml version="1.0" encoding="UTF-8"?>
<svg xmlns="http://www.w3.org/2000/svg" version="1.1" viewBox="0 0 226 79">
  <defs>
    <style>
      .cls-1 {
        fill: #fff;
      }
    </style>
  </defs>
  <!-- Generator: Adobe Illustrator 28.7.1, SVG Export Plug-In . SVG Version: 1.2.0 Build 142)  -->
  <g>
    <g id="a">
      <g>
        <path class="cls-1" d="M97.3,53.4l-1.8-5.8h-12l-1.9,5.8h-10.1l14.2-39.2h7.4l14.2,39.2h-10ZM89.7,29.1l-3.5,10.4h6.8l-3.3-10.4Z"/>
        <path class="cls-1" d="M130.1,49.9c-1.8,1.9-4.7,3.8-9.5,3.8s-7.8-1.9-9.5-3.8c-2.5-2.7-3.2-5.5-3.2-11.3s.8-8.6,3.2-11.3c1.8-1.9,4.7-3.8,9.5-3.8s7.8,1.9,9.5,3.8c2.5,2.7,3.2,5.6,3.2,11.3s-.7,8.6-3.2,11.3ZM123,32.4c-.5-.5-1.3-.8-2.4-.8s-1.9.3-2.4.8c-1.2,1.2-1.3,3.2-1.3,6.2s.2,5,1.3,6.2c.6.5,1.3.8,2.4.8s1.9-.3,2.4-.8c1.2-1.2,1.3-3.2,1.3-6.2s-.2-5-1.3-6.2Z"/>
        <path class="cls-1" d="M153.1,39.4h-5.9v14h-9.6V14.2h15.5c8.7,0,13.4,6.2,13.4,12.6s-4.7,12.6-13.4,12.6h0ZM152.6,22.9h-5.4v7.9h5.4c2.6,0,4.2-1.9,4.2-4s-1.5-3.9-4.2-3.9h0Z"/>
        <path class="cls-1" d="M182.5,53.7c-6,0-10.9-1.1-14.8-5.2l6.2-6.2c2,2,5.6,2.7,8.7,2.7s5.6-1.3,5.6-3.5-.2-1.7-.8-2.3c-.5-.5-1.3-.9-2.6-1l-4.7-.7c-3.5-.5-6.1-1.6-7.9-3.5-1.8-1.9-2.7-4.5-2.7-7.9,0-7.1,5.4-12.4,14.3-12.4s9.8,1.3,13.2,4.7l-6,6c-2.5-2.5-5.7-2.3-7.4-2.3-3.4,0-4.7,1.9-4.7,3.6s.2,1.2.8,1.8c.5.5,1.3,1,2.7,1.2l4.7.7c3.5.5,6,1.6,7.7,3.2,2.1,2,2.9,4.9,2.9,8.6,0,8.2-6.9,12.5-15.2,12.5h0Z"/>
      </g>
      <g>
        <path class="cls-1" d="M79.4,71.1h-5.6l-1.1,2.9h-1l4.5-12.1h.8l4.5,12.1h-1l-1.1-2.9ZM74,70.2h5.1l-2.5-7.1-2.6,7.1Z"/>
        <path class="cls-1" d="M86,66.5c-1.4,0-2.2,1.2-2.2,2.5v5h-.9v-8.2h.9v1.1c.5-.8,1.4-1.2,2.4-1.2s1.4.2,2,.8l-.6.6c-.6-.5-.9-.6-1.6-.6h0Z"/>
        <path class="cls-1" d="M89.8,71.9v-5.4h-1.1v-.6h1.1v-2.7h.9v2.6h1.9v.6h-1.9v5.4c0,.9.4,1.4,1.3,1.4h.6v.8h-.7c-1.4,0-2.1-.9-2.1-2.1Z"/>
        <path class="cls-1" d="M103.7,73.2c-.6.6-1.3.9-2.3.9s-1.7-.3-2.3-.9c-.9-.9-1-2.1-1-3.3s.2-2.4,1-3.3c.6-.6,1.4-.9,2.3-.9s1.7.3,2.3.9c.9.9,1,2.1,1,3.3s0,2.4-1,3.3ZM103.1,67.2c-.5-.5-1-.7-1.7-.7s-1.2.2-1.7.7-.7,1.8-.7,2.7,0,2.1.7,2.7,1,.7,1.7.7,1.2-.2,1.7-.7.7-1.8.7-2.7,0-2.1-.7-2.7Z"/>
        <path class="cls-1" d="M107.9,74h-.9v-7.5h-1.1v-.6h1.1v-1.8c0-1.2.7-2.1,2-2.1h.7v.8h-.6c-.9,0-1.3.5-1.3,1.4v1.8h1.9v.6h-1.9v7.4h.1Z"/>
        <path class="cls-1" d="M120.1,68.9h-3.5v5.1h-.9v-12.1h4.4c2.1,0,3.7,1.3,3.7,3.5,0,2.2-1.6,3.5-3.7,3.5h0ZM120,62.7h-3.4v5.3h3.4c1.7,0,2.8-.8,2.8-2.7s-1.1-2.6-2.8-2.6Z"/>
        <path class="cls-1" d="M128.4,66.5c-1.4,0-2.2,1.2-2.2,2.5v5h-.9v-8.2h.9v1.1c.5-.8,1.4-1.2,2.4-1.2s1.4.2,2,.8l-.6.6c-.6-.5-.9-.6-1.6-.6h0Z"/>
        <path class="cls-1" d="M136.4,73.2c-.6.6-1.3.9-2.3.9s-1.7-.3-2.3-.9c-.9-.9-1-2.1-1-3.3s.2-2.4,1-3.3c.6-.6,1.4-.9,2.3-.9s1.7.3,2.3.9c.9.9,1,2.1,1,3.3s0,2.4-1,3.3ZM135.9,67.2c-.5-.5-1-.7-1.7-.7s-1.2.2-1.7.7-.7,1.8-.7,2.7.1,2.1.7,2.7c.5.5,1,.7,1.7.7s1.2-.2,1.7-.7.7-1.8.7-2.7,0-2.1-.7-2.7Z"/>
        <path class="cls-1" d="M144.8,73.4c-.4.4-1.1.7-2,.7s-1.7-.2-2.4-1.2v1.1h-.9v-12.1h.9v5c.7-1,1.5-1.2,2.4-1.2s1.6.3,2,.7c.8.8,1.1,2.2,1.1,3.5s-.3,2.7-1.1,3.5ZM142.7,66.5c-2,0-2.3,1.7-2.3,3.4s.3,3.4,2.3,3.4,2.3-1.7,2.3-3.4-.3-3.4-2.3-3.4Z"/>
        <path class="cls-1" d="M147.9,71.9v-10h.9v10c0,.9.3,1.4,1.3,1.4h.6v.8h-.7c-1.5,0-2.1-.9-2.1-2.2h0Z"/>
        <path class="cls-1" d="M155,73.3c1,0,1.6-.3,2.3-1l.6.5c-.8.8-1.6,1.3-3,1.3-2.3,0-3.5-1.5-3.5-4.2s1.2-4.2,3.3-4.2,3.3,1.5,3.3,4v.4h-5.7c0,2.1,1,3.2,2.7,3.2h0ZM156.9,67.8c-.4-.9-1.2-1.4-2.1-1.4s-1.8.5-2.1,1.4c-.2.5-.2.7-.3,1.5h4.8c0-.7,0-1-.3-1.5h0Z"/>
        <path class="cls-1" d="M171,68.9c0-1.6-.8-2.4-2.3-2.4s-2.3.9-2.3,2.3v5.2h-.9v-5.1c0-1.6-.8-2.4-2.3-2.4s-2.3.9-2.3,2.4v5.1h-.9v-8.2h.9v1c.6-.7,1.4-1.1,2.4-1.1s2.1.5,2.6,1.5c.6-1,1.6-1.5,2.8-1.5s1.6.3,2.2.8c.6.5.9,1.3.9,2.3v5.2h-.8v-5.1h0Z"/>
        <path class="cls-1" d="M181.7,74.1c-1.8,0-2.9-.5-4-1.6l.6-.6c1.1,1.1,2,1.4,3.4,1.4s3.1-.9,3.1-2.5-.2-1.3-.7-1.7c-.5-.4-.7-.5-1.8-.6l-1.4-.2c-.9,0-1.6-.4-2.2-.9-.6-.5-1-1.3-1-2.2,0-2,1.4-3.3,3.8-3.3s2.4.4,3.5,1.3l-.6.6c-.7-.7-1.5-1.1-2.9-1.1s-2.8,1-2.8,2.5.2,1.2.6,1.6c.4.4,1.1.6,1.8.7l1.3.2c1.1.2,1.7.4,2.2.8.7.5,1.1,1.4,1.1,2.3,0,2-1.4,3.3-4,3.3h0Z"/>
        <path class="cls-1" d="M192.8,73.2c-.6.6-1.3.9-2.3.9s-1.7-.3-2.3-.9c-.9-.9-1-2.1-1-3.3s.2-2.4,1-3.3c.6-.6,1.4-.9,2.3-.9s1.7.3,2.3.9c.9.9,1,2.1,1,3.3s-.1,2.4-1,3.3ZM192.2,67.2c-.5-.5-1-.7-1.7-.7s-1.2.2-1.7.7-.7,1.8-.7,2.7.1,2.1.7,2.7c.5.5,1,.7,1.7.7s1.2-.2,1.7-.7.7-1.8.7-2.7,0-2.1-.7-2.7Z"/>
        <path class="cls-1" d="M195.7,71.9v-10h.9v10c0,.9.3,1.4,1.3,1.4h.6v.8h-.7c-1.5,0-2.1-.9-2.1-2.2h0Z"/>
        <path class="cls-1" d="M201.1,74l-3-8.2h1l2.5,7.2,2.5-7.2h1l-3,8.2h-1Z"/>
        <path class="cls-1" d="M206.3,61.9h1.1v1.1h-1.1v-1.1ZM206.4,65.8h.9v8.2h-.9v-8.2Z"/>
        <path class="cls-1" d="M215.5,68.9c0-1.6-.8-2.4-2.3-2.4s-2.3.9-2.3,2.4v5.1h-.9v-8.2h.9v1c.6-.7,1.4-1.1,2.4-1.1s1.6.3,2.2.8c.6.5.8,1.3.8,2.3v5.2h-.9v-5.1h.1Z"/>
        <path class="cls-1" d="M221.2,78c-1.2,0-1.9-.3-2.7-1.1l.6-.6c.6.6,1.1.9,2.1.9,1.7,0,2.5-1.2,2.5-2.8v-1.5c-.7,1-1.5,1.2-2.4,1.2s-1.6-.3-2-.7c-.8-.8-1.1-2.2-1.1-3.5s.2-2.7,1.1-3.5c.4-.4,1.1-.7,2-.7s1.7.2,2.4,1.2v-1.1h.9v8.7c0,2-1.3,3.5-3.4,3.5ZM221.4,66.5c-2,0-2.3,1.7-2.3,3.4s.3,3.4,2.3,3.4,2.3-1.7,2.3-3.4-.3-3.4-2.3-3.4Z"/>
      </g>
      <g>
        <path class="cls-1" d="M29.5,1.1L1.2,17.4v32.6l28.3,16.3,28.3-16.3V17.5L29.5,1.1h0ZM57,28.5l-8.2,4.7v-10.1l8.2-4.8v10.2ZM29.6,55.2l-8.6-5,8.6-5,8.6,4.9-8.6,5s0,0,0,0ZM11.1,23.2l8.6-5v10l-8.6,5s0-10,0-10ZM48,33.2l-8.6-5v-10l8.6,5v10.1h0ZM20.1,39.3h0ZM29.5,33.3l-8.5-4.9,8.5-5,8.5,4.9-8.5,5ZM20.5,29l8.6,5v10l-8.6-5v-10ZM30,34l8.6-5v10.1l-8.6,4.9s0-10,0-10ZM38.6,27.7l-8.6-5v-10l8.6,5v10ZM29.1,22.7l-8.6,5v-10l8.6-5v10ZM19.7,29.2v9.9l-8.6,5v-9.9l8.6-5M20.1,39.8l8.6,5-8.6,5-8.6-4.9,8.5-5h.1ZM39,49.7l-8.6-4.9,8.6-4.9,8.5,5-8.5,4.9h0ZM39.4,39.1v-9.9l8.6,5v9.9s-8.6-5-8.6-5ZM48.5,22.4l-8.5-4.9,8-4.7,8.5,4.9s-8,4.7-8,4.7ZM39.1,17l-8.8-5.1,8-4.7,8.8,5.1-8,4.7ZM20.1,17l-8.2-4.8,8.6-5,8.1,4.7-8.6,5s.1.1,0,.1ZM19.2,17.5l-8.6,5-8.2-4.8,8.6-5,8.2,4.8ZM10.2,23.2v9.9l-8.1-4.7v-10l8.1,4.7s0,.1,0,0ZM2.1,29.4l8.1,4.7v9.9l-8.1-4.7s0-9.9,0-9.9ZM19.7,50.4v9.3l-8.6-5v-9.3l8.6,5ZM20.5,50.9l8.6,5v9.3l-8.6-5v-9.3ZM30,55.9l8.6-5v9.3l-8.6,5s0-9.3,0-9.3ZM39.4,50.4l8.6-5v9.3l-8.6,5s0-9.3,0-9.3ZM48.9,34.1l8.2-4.7v9.9l-8.2,4.7v-9.9ZM37.5,6.7l-8.2,4.8-8-4.7,8.2-4.7,8,4.6ZM2.1,40.3l8.1,4.7v9.3l-8.1-4.7s0-9.3,0-9.3ZM48.9,54.3v-9.3l8.2-4.7v9.3l-8.2,4.7Z"/>
        <path class="cls-1" d="M29.6,66.8L.9,50.2V17.2L29.5.7l28.7,16.6v33l-28.7,16.6s.1,0,0,0ZM1.6,49.8l27.9,16.1,27.9-16.1V17.7L29.4,1.6,1.5,17.7v32.2s0,0,.1-.1ZM29.5,65.8l-9.4-5.4v-10.1l9.4,5.4v10.1ZM20.9,60l7.9,4.5v-8.4l-7.9-4.5v8.4ZM29.6,65.8v-10.1l9.4-5.4v10.1s-9.4,5.4-9.4,5.4ZM30.4,56.1v8.4l7.9-4.5v-8.4l-7.9,4.5h0ZM39.1,60.4v-10.1l9.4-5.4v10.1s-9.4,5.4-9.4,5.4ZM39.8,50.7v8.4l7.9-4.5v-8.4l-7.9,4.5ZM20.1,60.3l-9.4-5.4v-10.1l9.4,5.4v10.1ZM11.5,54.5l7.9,4.5v-8.4l-7.9-4.5s0,8.4,0,8.4ZM29.6,55.6l-9.4-5.4,9.4-5.4,9.4,5.4s-9.4,5.4-9.4,5.4ZM21.7,50.2l7.9,4.5,7.9-4.5-7.9-4.5s-7.9,4.5-7.9,4.5ZM48.5,54.9v-10.1l8.9-5.1v10.1s-8.9,5.1-8.9,5.1ZM49.3,45.2v8.4l7.4-4.3v-8.4s-7.4,4.3-7.4,4.3ZM10.6,54.9l-8.9-5.1v-10.1l8.9,5.1v10.1ZM2.5,49.3l7.4,4.3v-8.4l-7.4-4.3s0,8.4,0,8.4ZM20.1,50.1l-9.3-5.4,9.3-5.4,9.4,5.4-9.4,5.4ZM12.3,44.8l7.8,4.5,7.9-4.5-7.9-4.5s-7.8,4.5-7.8,4.5ZM39,50.1l-9.4-5.4,9.3-5.4,9.3,5.4-9.3,5.3s0,0,0,.1ZM31.2,44.8l7.9,4.5,7.8-4.5-7.8-4.5-7.8,4.5h-.1ZM48.4,44.7l-9.4-5.5v-10.8l9.4,5.4s0,10.9,0,10.9ZM39.8,38.9l7.9,4.6v-9.1l-7.9-4.6v9.1ZM10.7,44.7v-10.7l9.4-5.5v10.7l-9.4,5.5ZM11.5,34.4v9l7.9-4.6v-9s-7.9,4.6-7.9,4.6ZM29.6,44.7v-10.9l9.4-5.5v10.9l-9.4,5.4s0,0,0,0ZM30.4,34.2v9.1l7.9-4.5v-9.2l-7.9,4.6h0ZM48.5,44.7v-10.7l8.9-5.1v10.7s-8.9,5.1-8.9,5.1ZM49.3,34.4v9l7.4-4.3v-9l-7.4,4.3ZM29.5,44.7l-9.4-5.4v-10.9l9.4,5.5v10.8ZM20.9,38.8l7.9,4.5v-9.1l-7.9-4.6v9.2ZM10.6,44.6l-8.9-5.1v-10.7l8.9,5.1v10.8h0ZM2.5,39.1l7.4,4.3v-9l-7.4-4.2v9s0,0,0,0ZM10.7,33.9v-10.9l9.4-5.5v10.9l-9.4,5.5ZM11.5,23.4v9.1l7.9-4.6v-9.1s-7.9,4.6-7.9,4.6ZM48.5,33.8v-10.9l8.9-5.2v11l-8.9,5.1ZM49.3,23.3v9.2l7.4-4.3v-9.3l-7.4,4.3h0ZM48.4,33.8l-9.4-5.4v-10.9l9.4,5.4s0,10.9,0,10.9ZM39.8,27.9l7.9,4.6v-9.2l-7.9-4.5v9.2h0ZM10.6,33.8L1.7,28.7v-10.9l8.9,5.2v10.8ZM2.5,28.2l7.4,4.2v-9.1l-7.4-4.3s0,9.2,0,9.2ZM29.5,33.7l-9.2-5.4,9.3-5.4,9.2,5.4-9.3,5.4h0ZM21.8,28.4l7.7,4.5,7.8-4.5-7.7-4.5-7.8,4.5h0ZM20.1,28.4v-10.9l9.4-5.5v10.9l-9.4,5.5ZM20.9,17.9v9.1l7.9-4.6v-9.1l-7.9,4.6ZM39,28.3l-9.4-5.4v-10.9l9.4,5.4v10.9ZM30.4,22.4l7.9,4.6v-9.2l-7.9-4.5v9.1h0ZM10.7,22.9L1.7,17.7l9.4-5.4,8.9,5.2-9.3,5.4h0ZM3.2,17.7l7.5,4.3,7.8-4.6-7.4-4.3-7.9,4.5s0,.1,0,.1ZM48.5,22.8l-9.3-5.4,8.8-5.1,9.3,5.3-8.8,5.1s0,.1,0,0ZM40.7,17.4l7.8,4.5,7.3-4.3-7.8-4.5s-7.3,4.3-7.3,4.3ZM20.1,17.4l-8.9-5.2,9.4-5.4,8.8,5.2-9.3,5.4ZM12.7,12.3l7.4,4.3,7.8-4.6-7.4-4.3-7.9,4.5h.1ZM39.1,17.4l-9.5-5.5,8.8-5.1,9.5,5.5-8.8,5.1ZM31.1,11.9l8,4.6,7.3-4.3-8-4.6-7.3,4.2h0ZM29.4,11.9l-8.8-5.1L29.5,1.7l8.8,5.1-8.9,5.2s0-.1,0,0ZM22.1,6.8l7.3,4.2,7.4-4.3-7.3-4.2-7.4,4.3h0Z"/>
      </g>
    </g>
  </g>
</svg>