<?xml version="1.0" encoding="utf-8"?>
<!-- Generator: Adobe Illustrator 27.6.1, SVG Export Plug-In . SVG Version: 6.00 Build 0)  -->
<svg version="1.1" id="a" xmlns="http://www.w3.org/2000/svg" xmlns:xlink="http://www.w3.org/1999/xlink" x="0px" y="0px"
	 viewBox="0 0 247.2 253.7" style="enable-background:new 0 0 247.2 253.7;" xml:space="preserve">
<style type="text/css">
	.st0{fill:#1B365D;}
	.st1{fill:#C5DC6F;}
	.st2{fill:#61AD00;}
</style>
<g>
	<path class="st0" d="M36.6,236h-7.1l-1.4,3.7h-1.3l5.7-15.3h1l5.7,15.3H38L36.6,236z M29.8,234.9h6.4l-3.2-9L29.8,234.9z"/>
	<path class="st0" d="M44.9,230.2c-1.8,0-2.8,1.5-2.8,3.2v6.3H41v-10.3h1.1v1.4c0.6-1,1.8-1.5,3-1.5c1,0,1.8,0.3,2.5,1l-0.8,0.8
		C46.2,230.3,45.8,230.2,44.9,230.2L44.9,230.2z"/>
	<path class="st0" d="M49.7,237v-6.8h-1.4v-0.8h1.4V226h1.1v3.3h2.4v0.8h-2.4v6.8c0,1.1,0.5,1.8,1.6,1.8h0.8v1h-0.9
		C50.6,239.6,49.7,238.5,49.7,237z"/>
	<path class="st0" d="M67.3,238.6c-0.8,0.8-1.6,1.1-2.9,1.1c-1.1,0-2.1-0.4-2.9-1.1c-1.1-1.1-1.3-2.6-1.3-4.2c0-1.5,0.3-3,1.3-4.2
		c0.8-0.8,1.8-1.1,2.9-1.1c1.1,0,2.1,0.4,2.9,1.1c1.1,1.1,1.3,2.6,1.3,4.2C68.5,236,68.4,237.5,67.3,238.6z M66.5,231.1
		c-0.6-0.6-1.3-0.9-2.1-0.9c-0.9,0-1.5,0.3-2.1,0.9c-0.9,0.9-0.9,2.3-0.9,3.4c0,1.1,0.1,2.6,0.9,3.4c0.6,0.6,1.3,0.9,2.1,0.9
		c0.9,0,1.5-0.3,2.1-0.9c0.9-0.9,0.9-2.3,0.9-3.4C67.4,233.3,67.4,231.8,66.5,231.1z"/>
	<path class="st0" d="M72.6,239.6h-1.1v-9.5H70v-0.8h1.4v-2.3c0-1.5,0.9-2.6,2.5-2.6h0.9v1h-0.8c-1.1,0-1.6,0.6-1.6,1.8v2.3h2.4v0.8
		h-2.4v9.3H72.6z"/>
	<path class="st0" d="M87.9,233.2h-4.4v6.4h-1.1v-15.3h5.5c2.6,0,4.7,1.6,4.7,4.4C92.6,231.6,90.6,233.2,87.9,233.2L87.9,233.2z
		 M87.8,225.4h-4.3v6.7h4.3c2.1,0,3.5-1,3.5-3.4C91.3,226.3,90,225.4,87.8,225.4z"/>
	<path class="st0" d="M98.4,230.2c-1.8,0-2.8,1.5-2.8,3.2v6.3h-1.1v-10.3h1.1v1.4c0.6-1,1.8-1.5,3-1.5c1,0,1.8,0.3,2.5,1l-0.8,0.8
		C99.7,230.3,99.3,230.2,98.4,230.2L98.4,230.2z"/>
	<path class="st0" d="M108.5,238.6c-0.8,0.8-1.6,1.1-2.9,1.1c-1.1,0-2.1-0.4-2.9-1.1c-1.1-1.1-1.3-2.6-1.3-4.2c0-1.5,0.3-3,1.3-4.2
		c0.8-0.8,1.8-1.1,2.9-1.1c1.1,0,2.1,0.4,2.9,1.1c1.1,1.1,1.3,2.6,1.3,4.2C109.7,236,109.6,237.5,108.5,238.6z M107.9,231.1
		c-0.6-0.6-1.3-0.9-2.1-0.9s-1.5,0.3-2.1,0.9c-0.9,0.9-0.9,2.3-0.9,3.4c0,1.1,0.1,2.6,0.9,3.4c0.6,0.6,1.3,0.9,2.1,0.9
		s1.5-0.3,2.1-0.9c0.9-0.9,0.9-2.3,0.9-3.4C108.7,233.3,108.6,231.8,107.9,231.1z"/>
	<path class="st0" d="M119.1,238.9c-0.5,0.5-1.4,0.9-2.5,0.9c-1.1,0-2.1-0.3-3-1.5v1.4h-1.1v-15.3h1.1v6.3c0.9-1.3,1.9-1.5,3-1.5
		c1.1,0,2,0.4,2.5,0.9c1,1,1.4,2.8,1.4,4.4C120.5,236.1,120.1,237.9,119.1,238.9z M116.4,230.2c-2.5,0-2.9,2.1-2.9,4.3
		c0,2.1,0.4,4.3,2.9,4.3c2.5,0,2.9-2.1,2.9-4.3S118.9,230.2,116.4,230.2z"/>
	<path class="st0" d="M123,237v-12.6h1.1V237c0,1.1,0.4,1.8,1.6,1.8h0.8v1h-0.9C123.7,239.6,123,238.6,123,237L123,237z"/>
	<path class="st0" d="M131.9,238.8c1.3,0,2-0.4,2.9-1.3l0.8,0.6c-1,1-2,1.6-3.8,1.6c-2.9,0-4.4-1.9-4.4-5.3s1.5-5.3,4.2-5.3
		s4.2,1.9,4.2,5v0.5h-7.2C128.5,237.4,129.8,238.8,131.9,238.8L131.9,238.8z M134.3,231.8c-0.5-1.1-1.5-1.8-2.6-1.8
		c-1.3,0-2.3,0.6-2.6,1.8c-0.3,0.6-0.3,0.9-0.4,1.9h6.1C134.6,232.8,134.6,232.5,134.3,231.8L134.3,231.8z"/>
	<path class="st0" d="M152.1,233.2c0-2-1-3-2.9-3c-1.8,0-2.9,1.1-2.9,2.9v6.6h-1.1v-6.4c0-2-1-3-2.9-3c-1.9,0-2.9,1.1-2.9,3v6.4
		h-1.1v-10.3h1.1v1.3c0.8-0.9,1.8-1.4,3-1.4c1.5,0,2.6,0.6,3.3,1.9c0.8-1.3,2-1.9,3.5-1.9c1.1,0,2,0.4,2.8,1
		c0.8,0.6,1.1,1.6,1.1,2.9v6.6h-1V233.2L152.1,233.2z"/>
	<path class="st0" d="M165.6,239.8c-2.3,0-3.7-0.6-5-2l0.8-0.8c1.4,1.4,2.5,1.8,4.3,1.8c2.4,0,3.9-1.1,3.9-3.2
		c0-0.9-0.3-1.6-0.9-2.1c-0.6-0.5-0.9-0.6-2.3-0.8l-1.8-0.3c-1.1-0.1-2-0.5-2.8-1.1c-0.8-0.6-1.3-1.6-1.3-2.8c0-2.5,1.8-4.2,4.8-4.2
		c1.9,0,3,0.5,4.4,1.6l-0.8,0.8c-0.9-0.9-1.9-1.4-3.7-1.4c-2.3,0-3.5,1.3-3.5,3.2c0,0.9,0.3,1.5,0.8,2c0.5,0.5,1.4,0.8,2.3,0.9
		l1.6,0.3c1.4,0.3,2.1,0.5,2.8,1c0.9,0.6,1.4,1.8,1.4,2.9C170.8,238.1,168.9,239.8,165.6,239.8L165.6,239.8z"/>
	<path class="st0" d="M179.6,238.6c-0.8,0.8-1.6,1.1-2.9,1.1c-1.1,0-2.1-0.4-2.9-1.1c-1.1-1.1-1.3-2.6-1.3-4.2c0-1.5,0.3-3,1.3-4.2
		c0.8-0.8,1.8-1.1,2.9-1.1s2.1,0.4,2.9,1.1c1.1,1.1,1.3,2.6,1.3,4.2C180.9,236,180.7,237.5,179.6,238.6z M178.8,231.1
		c-0.6-0.6-1.3-0.9-2.1-0.9s-1.5,0.3-2.1,0.9c-0.9,0.9-0.9,2.3-0.9,3.4c0,1.1,0.1,2.6,0.9,3.4c0.6,0.6,1.3,0.9,2.1,0.9
		s1.5-0.3,2.1-0.9c0.9-0.9,0.9-2.3,0.9-3.4C179.7,233.3,179.7,231.8,178.8,231.1z"/>
	<path class="st0" d="M183.2,237v-12.6h1.1V237c0,1.1,0.4,1.8,1.6,1.8h0.8v1h-0.9C184,239.6,183.2,238.6,183.2,237L183.2,237z"/>
	<path class="st0" d="M190.1,239.6l-3.8-10.3h1.3l3.2,9.1l3.2-9.1h1.3l-3.8,10.3H190.1L190.1,239.6z"/>
	<path class="st0" d="M196.6,224.4h1.4v1.4h-1.4V224.4z M196.7,229.3h1.1v10.3h-1.1V229.3z"/>
	<path class="st0" d="M208.2,233.2c0-2-1-3-2.9-3c-1.9,0-2.9,1.1-2.9,3v6.4h-1.1v-10.3h1.1v1.3c0.8-0.9,1.8-1.4,3-1.4
		c1.1,0,2,0.4,2.8,1c0.8,0.6,1,1.6,1,2.9v6.6h-1.1L208.2,233.2L208.2,233.2z"/>
	<path class="st0" d="M215.4,244.7c-1.5,0-2.4-0.4-3.4-1.4l0.8-0.8c0.8,0.8,1.4,1.1,2.6,1.1c2.1,0,3.2-1.5,3.2-3.5v-1.9
		c-0.9,1.3-1.9,1.5-3,1.5c-1.1,0-2-0.4-2.5-0.9c-1-1-1.4-2.8-1.4-4.4s0.3-3.4,1.4-4.4c0.5-0.5,1.4-0.9,2.5-0.9c1.1,0,2.1,0.3,3,1.5
		v-1.4h1.1v11C219.7,242.8,218,244.7,215.4,244.7z M215.6,230.2c-2.5,0-2.9,2.1-2.9,4.3c0,2.1,0.4,4.3,2.9,4.3s2.9-2.1,2.9-4.3
		S218.2,230.2,215.6,230.2z"/>
</g>
<g>
	<path class="st0" d="M91.6,214.4l-1.6-5.1H79.6l-1.6,5.1h-8.5l12.2-33.2h6.4l12.2,33.2H91.6L91.6,214.4z M85.2,193.7l-3.2,8.8h5.8
		L85.2,193.7L85.2,193.7z"/>
	<path class="st0" d="M119.4,211.5c-1.6,1.6-4,3.2-8,3.2c-4,0-6.6-1.6-8-3.2c-2.1-2.4-2.7-4.8-2.7-9.6s0.5-7.4,2.7-9.6
		c1.6-1.6,4-3.2,8-3.2c4,0,6.6,1.6,8,3.2c2.1,2.4,2.7,4.8,2.7,9.6S121.6,209.1,119.4,211.5z M113.3,196.6c-0.5-0.5-1.1-0.8-2.1-0.8
		s-1.6,0.3-2.1,0.8c-1.1,1.1-1.1,2.7-1.1,5.3s0.3,4.2,1.1,5.3c0.5,0.5,1.1,0.8,2.1,0.8s1.6-0.3,2.1-0.8c1.1-1.1,1.1-2.7,1.1-5.3
		S114.4,197.4,113.3,196.6z"/>
	<path class="st0" d="M139.1,202.5H134v11.9h-8.2V181h13.3c7.4,0,11.4,5.3,11.4,10.6S146.3,202.5,139.1,202.5z M138.6,188.4H134v6.6
		h4.5c2.1,0,3.4-1.6,3.4-3.4S140.9,188.4,138.6,188.4z"/>
	<path class="st0" d="M164.1,214.7c-5.1,0-9.3-1.1-12.8-4.5l5.3-5.3c1.9,1.9,4.8,2.4,7.4,2.4c3.2,0,4.8-1.1,4.8-2.9
		c0-0.8-0.3-1.3-0.5-1.9c-0.5-0.5-1.1-0.8-2.1-0.8l-4-0.5c-2.9-0.5-5.3-1.3-6.6-2.9c-1.6-1.6-2.4-3.7-2.4-6.6
		c0-6.1,4.5-10.6,12.2-10.6c4.8,0,8.5,1.1,11.2,4l-5.1,5.1c-2.1-2.1-4.8-1.9-6.4-1.9c-2.9,0-4,1.6-4,3.2c0,0.5,0.3,1.1,0.5,1.6
		c0.5,0.5,1.1,0.8,2.4,1.1l4,0.5c2.9,0.5,5.1,1.3,6.6,2.7c1.9,1.9,2.4,4.2,2.4,7.2C176.8,211,171,214.7,164.1,214.7L164.1,214.7z"/>
</g>
<g>
	<polygon class="st0" points="74.4,107.8 54.2,96.2 54.2,119.7 74.4,131.3 	"/>
	<polygon class="st0" points="97.9,121.4 77.7,109.8 77.7,133.2 97.9,145.1 	"/>
	<polygon class="st0" points="74.4,80.7 54.2,68.8 54.2,92.3 74.4,104.1 	"/>
	<polygon class="st0" points="74.4,53.5 54.2,41.7 54.2,65.1 74.4,77 	"/>
	<polygon class="st0" points="121.6,135.2 101.3,123.4 101.3,146.8 121.6,158.6 	"/>
	<polygon class="st0" points="168.7,53.5 148.5,41.7 148.5,65.1 168.7,77 	"/>
	<polygon class="st0" points="145,39.7 124.8,28.1 124.8,51.6 145,63.4 	"/>
	<polygon class="st0" points="168.7,80.7 148.5,68.8 148.5,92.3 168.7,104.1 	"/>
	<g>
		<polygon class="st1" points="171.9,131.3 192.4,119.7 192.4,96.2 171.9,107.8 		"/>
		<polygon class="st1" points="148.5,145.1 168.7,133.2 168.7,109.8 148.5,121.4 		"/>
		<polygon class="st1" points="171.9,104.1 192.4,92.3 192.4,68.8 171.9,80.7 		"/>
		<polygon class="st1" points="192.4,41.7 171.9,53.5 171.9,77 192.4,65.1 		"/>
		<polygon class="st1" points="124.8,158.6 145,146.8 145,123.4 124.8,135.2 		"/>
		<polygon class="st1" points="97.9,41.7 77.7,53.5 77.7,77 97.9,65.1 		"/>
		<polygon class="st1" points="121.6,28.1 101.3,39.7 101.3,63.4 121.6,51.6 		"/>
		<polygon class="st1" points="77.7,104.1 97.9,92.3 97.9,68.8 77.7,80.7 		"/>
		<polygon class="st1" points="145,68.8 124.8,80.7 124.8,104.1 145,92.3 		"/>
	</g>
	<polygon class="st0" points="101.3,92.3 121.6,104.1 121.6,80.7 101.3,68.8 	"/>
	<g>
		<polygon class="st2" points="123.3,0 102.8,11.6 123.3,23.4 143.5,11.6 		"/>
		<polygon class="st2" points="119.8,25.2 99.6,13.6 79.4,25.2 99.6,37 		"/>
		<polygon class="st2" points="146.7,37 167,25.2 146.7,13.6 126.5,25.2 		"/>
		<polygon class="st2" points="170.4,27.1 149.9,39 170.4,50.6 190.7,39 		"/>
		<polygon class="st2" points="75.9,27.1 55.7,39 75.9,50.6 96.4,39 		"/>
		<polygon class="st2" points="123.3,108.8 102.8,120.7 123.3,132.2 143.5,120.7 		"/>
		<polygon class="st2" points="146.7,95.2 126.5,107.1 146.7,118.7 167,107.1 		"/>
		<polygon class="st2" points="99.6,95.2 79.4,107.1 99.6,118.7 119.8,107.1 		"/>
		<polygon class="st2" points="123.3,54.3 102.8,66.1 123.3,78 143.5,66.1 		"/>
	</g>
</g>
</svg>
