<?xml version="1.0" encoding="UTF-8"?>
<svg xmlns="http://www.w3.org/2000/svg" version="1.1" viewBox="0 0 227.5 81.2">
  <defs>
    <style>
      .cls-1 {
        fill: #1b365d;
      }

      .cls-2 {
        fill: #c5dc6f;
      }

      .cls-3 {
        fill: #61ad00;
      }
    </style>
  </defs>
  <!-- Generator: Adobe Illustrator 28.7.1, SVG Export Plug-In . SVG Version: 1.2.0 Build 142)  -->
  <g>
    <g id="Layer_1">
      <g id="a">
        <g>
          <path class="cls-1" d="M84.9-121.6l-1-3.4h-7l-1.1,3.4h-5.9l8.3-22.8h4.3l8.3,22.8h-5.9ZM80.4-135.7l-2,6h4l-1.9-6h0Z"/>
          <path class="cls-1" d="M103.9-123.6c-1,1.1-2.7,2.2-5.5,2.2s-4.5-1.1-5.5-2.2c-1.5-1.6-1.9-3.2-1.9-6.6s.5-5,1.9-6.6c1-1.1,2.7-2.2,5.5-2.2s4.5,1.1,5.5,2.2c1.5,1.6,1.9,3.3,1.9,6.6s-.4,5-1.9,6.6ZM99.8-133.8c-.3-.3-.8-.5-1.4-.5s-1.1.2-1.4.5c-.7.7-.8,1.9-.8,3.6s0,2.9.8,3.6c.3.3.8.5,1.4.5s1.1-.2,1.4-.5c.7-.7.8-1.9.8-3.6s0-2.9-.8-3.6Z"/>
          <path class="cls-1" d="M117.3-129.7h-3.4v8.1h-5.6v-22.8h9c5.1,0,7.8,3.6,7.8,7.3s-2.7,7.3-7.8,7.3h0ZM117-139.3h-3.1v4.6h3.1c1.5,0,2.4-1.1,2.4-2.3s-.9-2.3-2.4-2.3h0Z"/>
          <path class="cls-1" d="M134.4-121.4c-3.5,0-6.3-.6-8.6-3l3.6-3.6c1.2,1.2,3.3,1.6,5.1,1.6s3.3-.8,3.3-2,0-1-.5-1.3c-.3-.3-.8-.5-1.5-.6l-2.7-.4c-2-.3-3.5-.9-4.6-2-1-1.1-1.6-2.6-1.6-4.6,0-4.1,3.1-7.2,8.3-7.2s5.7.8,7.7,2.7l-3.5,3.5c-1.5-1.5-3.3-1.3-4.3-1.3-2,0-2.7,1.1-2.7,2.1s0,.7.5,1c.3.3.8.6,1.6.7l2.7.4c2,.3,3.5.9,4.5,1.9,1.2,1.2,1.7,2.9,1.7,5,0,4.8-4,7.3-8.8,7.3h0l-.2-.2Z"/>
        </g>
        <g>
          <path class="cls-1" d="M153.3-124.1h-4.6l-.9,2.4h-.8l3.7-9.9h.7l3.7,9.9h-.8l-.9-2.4h0ZM148.9-124.8h4.2l-2-5.8-2.1,5.8h0Z"/>
          <path class="cls-1" d="M158.7-127.8c-1.1,0-1.8,1-1.8,2v4.1h-.7v-6.7h.7v.9c.4-.7,1.1-1,2-1s1.1.2,1.6.7l-.5.5c-.5-.4-.7-.5-1.3-.5h0Z"/>
          <path class="cls-1" d="M161.8-123.4v-4.4h-.9v-.5h.9v-2.2h.7v2.1h1.5v.5h-1.5v4.4c0,.7.3,1.1,1.1,1.1h.5v.7h-.6c-1.1,0-1.7-.7-1.7-1.7Z"/>
          <path class="cls-1" d="M173.1-122.4c-.5.5-1.1.7-1.9.7s-1.4-.2-1.9-.7c-.7-.7-.8-1.7-.8-2.7s.2-2,.8-2.7c.5-.5,1.1-.7,1.9-.7s1.4.2,1.9.7c.7.7.8,1.7.8,2.7s0,2-.8,2.7ZM172.6-127.3c-.4-.4-.8-.6-1.4-.6s-1,.2-1.4.6-.6,1.5-.6,2.2,0,1.7.6,2.2.8.6,1.4.6,1-.2,1.4-.6.6-1.5.6-2.2,0-1.7-.6-2.2Z"/>
          <path class="cls-1" d="M176.5-121.7h-.7v-6.1h-.9v-.5h.9v-1.5c0-1,.6-1.7,1.6-1.7h.6v.7h-.5c-.7,0-1.1.4-1.1,1.1v1.5h1.5v.5h-1.5v6h0Z"/>
          <path class="cls-1" d="M186.5-125.9h-2.9v4.2h-.7v-9.9h3.6c1.7,0,3,1.1,3,2.9s-1.3,2.9-3,2.9h0ZM186.4-130.9h-2.8v4.3h2.8c1.4,0,2.3-.7,2.3-2.2s-.9-2.1-2.3-2.1Z"/>
          <path class="cls-1" d="M193.2-127.8c-1.1,0-1.8,1-1.8,2v4.1h-.7v-6.7h.7v.9c.4-.7,1.1-1,2-1s1.1.2,1.6.7l-.5.5c-.5-.4-.7-.5-1.3-.5h0Z"/>
          <path class="cls-1" d="M199.7-122.4c-.5.5-1.1.7-1.9.7s-1.4-.2-1.9-.7c-.7-.7-.8-1.7-.8-2.7s.2-2,.8-2.7c.5-.5,1.1-.7,1.9-.7s1.4.2,1.9.7c.7.7.8,1.7.8,2.7s0,2-.8,2.7ZM199.3-127.3c-.4-.4-.8-.6-1.4-.6s-1,.2-1.4.6-.6,1.5-.6,2.2,0,1.7.6,2.2c.4.4.8.6,1.4.6s1-.2,1.4-.6.6-1.5.6-2.2,0-1.7-.6-2.2Z"/>
          <path class="cls-1" d="M206.6-122.2c-.3.3-.9.6-1.6.6s-1.4-.2-2-1v.9h-.7v-9.9h.7v4.1c.6-.8,1.2-1,2-1s1.3.2,1.6.6c.7.7.9,1.8.9,2.9s-.2,2.2-.9,2.9h0ZM204.9-127.8c-1.6,0-1.9,1.4-1.9,2.8s.2,2.8,1.9,2.8,1.9-1.4,1.9-2.8-.2-2.8-1.9-2.8Z"/>
          <path class="cls-1" d="M209.1-123.4v-8.1h.7v8.1c0,.7.2,1.1,1.1,1.1h.5v.7h-.6c-1.2,0-1.7-.7-1.7-1.8h0Z"/>
          <path class="cls-1" d="M214.9-122.3c.8,0,1.3-.2,1.9-.8l.5.4c-.7.7-1.3,1.1-2.4,1.1-1.9,0-2.9-1.2-2.9-3.4s1-3.4,2.7-3.4,2.7,1.2,2.7,3.3v.3h-4.6c0,1.7.8,2.6,2.2,2.6h0ZM216.4-126.8c-.3-.7-1-1.1-1.7-1.1s-1.5.4-1.7,1.1c-.2.4-.2.6-.2,1.2h3.9c0-.6,0-.8-.2-1.2h-.1Z"/>
          <path class="cls-1" d="M227.9-125.9c0-1.3-.7-2-1.9-2s-1.9.7-1.9,1.9v4.2h-.7v-4.2c0-1.3-.7-2-1.9-2s-1.9.7-1.9,2v4.2h-.7v-6.7h.7v.8c.5-.6,1.1-.9,2-.9s1.7.4,2.1,1.2c.5-.8,1.3-1.2,2.3-1.2s1.3.2,1.8.7c.5.4.7,1.1.7,1.9v4.2h-.7v-4.2h0Z"/>
          <path class="cls-1" d="M236.6-121.6c-1.5,0-2.4-.4-3.3-1.3l.5-.5c.9.9,1.6,1.1,2.8,1.1s2.5-.7,2.5-2-.2-1.1-.6-1.4c-.4-.3-.6-.4-1.5-.5l-1.1-.2c-.7,0-1.3-.3-1.8-.7-.5-.4-.8-1.1-.8-1.8,0-1.6,1.1-2.7,3.1-2.7s2,.3,2.9,1.1l-.5.5c-.6-.6-1.2-.9-2.4-.9s-2.3.8-2.3,2,.2,1,.5,1.3.9.5,1.5.6l1.1.2c.9.2,1.4.3,1.8.7.6.4.9,1.1.9,1.9,0,1.6-1.1,2.7-3.3,2.7h0Z"/>
          <path class="cls-1" d="M245.7-122.4c-.5.5-1.1.7-1.9.7s-1.4-.2-1.9-.7c-.7-.7-.8-1.7-.8-2.7s.2-2,.8-2.7c.5-.5,1.1-.7,1.9-.7s1.4.2,1.9.7c.7.7.8,1.7.8,2.7s0,2-.8,2.7ZM245.2-127.3c-.4-.4-.8-.6-1.4-.6s-1,.2-1.4.6-.6,1.5-.6,2.2,0,1.7.6,2.2c.4.4.8.6,1.4.6s1-.2,1.4-.6.6-1.5.6-2.2,0-1.7-.6-2.2Z"/>
          <path class="cls-1" d="M248-123.4v-8.1h.7v8.1c0,.7.2,1.1,1.1,1.1h.5v.7h-.6c-1.2,0-1.7-.7-1.7-1.8h0Z"/>
          <path class="cls-1" d="M252.4-121.7l-2.4-6.7h.8l2,5.9,2-5.9h.8l-2.4,6.7h-.8Z"/>
          <path class="cls-1" d="M256.7-131.6h.9v.9h-.9v-.9ZM256.7-128.4h.7v6.7h-.7s0-6.7,0-6.7Z"/>
          <path class="cls-1" d="M264.2-125.9c0-1.3-.7-2-1.9-2s-1.9.7-1.9,2v4.2h-.7v-6.7h.7v.8c.5-.6,1.1-.9,2-.9s1.3.2,1.8.7c.5.4.7,1.1.7,1.9v4.2h-.7v-4.2h0Z"/>
          <path class="cls-1" d="M268.8-118.5c-1,0-1.5-.2-2.2-.9l.5-.5c.5.5.9.7,1.7.7,1.4,0,2-1,2-2.3v-1.2c-.6.8-1.2,1-2,1s-1.3-.2-1.6-.6c-.7-.7-.9-1.8-.9-2.9s.2-2.2.9-2.9c.3-.3.9-.6,1.6-.6s1.4.2,2,1v-.9h.7v7.1c0,1.6-1.1,2.9-2.8,2.9h.1ZM269-127.8c-1.6,0-1.9,1.4-1.9,2.8s.2,2.8,1.9,2.8,1.9-1.4,1.9-2.8-.2-2.8-1.9-2.8Z"/>
        </g>
        <g>
          <polygon class="cls-3" points="45.4 -151.7 40.6 -149 45.4 -146.2 50.2 -149 45.4 -151.7"/>
          <polygon class="cls-3" points="44.6 -145.8 39.8 -148.5 35.1 -145.8 39.8 -143 44.6 -145.8"/>
          <polygon class="cls-3" points="51 -143 55.7 -145.8 51 -148.5 46.2 -145.8 51 -143"/>
          <polygon class="cls-3" points="56.5 -145.3 51.7 -142.5 56.5 -139.8 61.3 -142.5 56.5 -145.3"/>
          <polygon class="cls-3" points="34.3 -145.3 29.5 -142.5 34.3 -139.8 39.1 -142.5 34.3 -145.3"/>
          <polygon class="cls-1" points="33.9 -126.3 29.1 -129 29.1 -123.5 33.9 -120.8 33.9 -126.3"/>
          <polygon class="cls-1" points="39.4 -123.1 34.7 -125.8 34.7 -120.3 39.4 -117.5 39.4 -123.1"/>
          <polygon class="cls-1" points="33.9 -132.7 29.1 -135.5 29.1 -130 33.9 -127.2 33.9 -132.7"/>
          <polygon class="cls-1" points="33.9 -139.1 29.1 -141.9 29.1 -136.4 33.9 -133.6 33.9 -139.1"/>
          <polygon class="cls-1" points="45 -119.9 40.2 -122.6 40.2 -117.1 45 -114.3 45 -119.9"/>
          <polygon class="cls-2" points="56.9 -120.8 61.7 -123.5 61.7 -129 56.9 -126.3 56.9 -120.8"/>
          <polygon class="cls-2" points="51.4 -117.5 56.1 -120.3 56.1 -125.8 51.4 -123.1 51.4 -117.5"/>
          <polygon class="cls-2" points="56.9 -127.2 61.7 -130 61.7 -135.5 56.9 -132.7 56.9 -127.2"/>
          <polygon class="cls-2" points="61.7 -141.9 56.9 -139.1 56.9 -133.6 61.7 -136.4 61.7 -141.9"/>
          <polygon class="cls-2" points="45.8 -114.3 50.5 -117.1 50.5 -122.6 45.8 -119.9 45.8 -114.3"/>
          <polygon class="cls-3" points="45.4 -126.1 40.6 -123.3 45.4 -120.5 50.2 -123.3 45.4 -126.1"/>
          <polygon class="cls-3" points="51 -129.3 46.2 -126.5 51 -123.7 55.7 -126.5 51 -129.3"/>
          <polygon class="cls-3" points="39.8 -129.3 35.1 -126.5 39.8 -123.7 44.6 -126.5 39.8 -129.3"/>
          <polygon class="cls-1" points="56.1 -139.1 51.4 -141.9 51.4 -136.4 56.1 -133.6 56.1 -139.1"/>
          <polygon class="cls-1" points="50.5 -142.4 45.8 -145.1 45.8 -139.6 50.5 -136.8 50.5 -142.4"/>
          <polygon class="cls-1" points="56.1 -132.7 51.4 -135.5 51.4 -130 56.1 -127.2 56.1 -132.7"/>
          <polygon class="cls-2" points="39.4 -141.9 34.7 -139.1 34.7 -133.6 39.4 -136.4 39.4 -141.9"/>
          <polygon class="cls-2" points="45 -145.1 40.2 -142.4 40.2 -136.8 45 -139.6 45 -145.1"/>
          <polygon class="cls-2" points="34.7 -127.2 39.4 -130 39.4 -135.5 34.7 -132.7 34.7 -127.2"/>
          <polygon class="cls-2" points="50.5 -135.5 45.8 -132.7 45.8 -127.2 50.5 -130 50.5 -135.5"/>
          <polygon class="cls-1" points="40.2 -130 45 -127.2 45 -132.7 40.2 -135.5 40.2 -130"/>
          <polygon class="cls-3" points="45.4 -138.9 40.6 -136.1 45.4 -133.3 50.2 -136.1 45.4 -138.9"/>
        </g>
      </g>
      <g>
        <g>
          <path class="cls-1" d="M97.6,54.1l-1.8-5.8h-12l-1.9,5.8h-10.1l14.2-39.2h7.4l14.2,39.2s-10,0-10,0ZM90,29.8l-3.5,10.4h6.8l-3.3-10.4Z"/>
          <path class="cls-1" d="M130.4,50.6c-1.8,1.9-4.7,3.8-9.5,3.8s-7.8-1.9-9.5-3.8c-2.5-2.7-3.2-5.5-3.2-11.3s.8-8.6,3.2-11.3c1.8-1.9,4.7-3.8,9.5-3.8s7.8,1.9,9.5,3.8c2.5,2.7,3.2,5.6,3.2,11.3s-.7,8.6-3.2,11.3ZM123.3,33.1c-.5-.5-1.3-.8-2.4-.8s-1.9.3-2.4.8c-1.2,1.2-1.3,3.2-1.3,6.2s.2,5,1.3,6.2c.6.5,1.3.8,2.4.8s1.9-.3,2.4-.8c1.2-1.2,1.3-3.2,1.3-6.2s-.2-5-1.3-6.2Z"/>
          <path class="cls-1" d="M153.4,40.1h-5.9v14h-9.6V14.9h15.5c8.7,0,13.4,6.2,13.4,12.6s-4.7,12.6-13.4,12.6h0ZM152.9,23.6h-5.4v7.9h5.4c2.6,0,4.2-1.9,4.2-4s-1.5-3.9-4.2-3.9h0Z"/>
          <path class="cls-1" d="M182.8,54.4c-6,0-10.9-1.1-14.8-5.2l6.2-6.2c2,2,5.6,2.7,8.7,2.7s5.6-1.3,5.6-3.5-.2-1.7-.8-2.3-1.3-.9-2.6-1l-4.7-.7c-3.5-.5-6.1-1.6-7.9-3.5-1.8-1.9-2.7-4.5-2.7-7.9,0-7.1,5.4-12.4,14.3-12.4s9.8,1.3,13.2,4.7l-6,6c-2.5-2.5-5.7-2.3-7.4-2.3-3.4,0-4.7,1.9-4.7,3.6s.2,1.2.8,1.8,1.3,1,2.7,1.2l4.7.7c3.5.5,6,1.6,7.7,3.2,2.1,2,2.9,4.9,2.9,8.6,0,8.2-6.9,12.5-15.2,12.5h0Z"/>
        </g>
        <g>
          <path class="cls-1" d="M79.7,71.8h-5.6l-1.1,2.9h-1l4.5-12.1h.8l4.5,12.1h-1s-1.1-2.9-1.1-2.9ZM74.3,70.9h5.1l-2.5-7.1-2.6,7.1Z"/>
          <path class="cls-1" d="M86.3,67.2c-1.4,0-2.2,1.2-2.2,2.5v5h-.9v-8.2h.9v1.1c.5-.8,1.4-1.2,2.4-1.2s1.4.2,2,.8l-.6.6c-.6-.5-.9-.6-1.6-.6h0Z"/>
          <path class="cls-1" d="M90.1,72.6v-5.4h-1.1v-.6h1.1v-2.7h.9v2.6h1.9v.6h-1.9v5.4c0,.9.4,1.4,1.3,1.4h.6v.8h-.7c-1.4,0-2.1-.9-2.1-2.1Z"/>
          <path class="cls-1" d="M104,73.9c-.6.6-1.3.9-2.3.9s-1.7-.3-2.3-.9c-.9-.9-1-2.1-1-3.3s.2-2.4,1-3.3c.6-.6,1.4-.9,2.3-.9s1.7.3,2.3.9c.9.9,1,2.1,1,3.3s0,2.4-1,3.3ZM103.4,67.9c-.5-.5-1-.7-1.7-.7s-1.2.2-1.7.7-.7,1.8-.7,2.7,0,2.1.7,2.7,1,.7,1.7.7,1.2-.2,1.7-.7.7-1.8.7-2.7,0-2.1-.7-2.7Z"/>
          <path class="cls-1" d="M108.2,74.7h-.9v-7.5h-1.1v-.6h1.1v-1.8c0-1.2.7-2.1,2-2.1h.7v.8h-.6c-.9,0-1.3.5-1.3,1.4v1.8h1.9v.6h-1.9v7.4h.1Z"/>
          <path class="cls-1" d="M120.4,69.6h-3.5v5.1h-.9v-12.1h4.4c2.1,0,3.7,1.3,3.7,3.5s-1.6,3.5-3.7,3.5h0ZM120.3,63.4h-3.4v5.3h3.4c1.7,0,2.8-.8,2.8-2.7s-1.1-2.6-2.8-2.6Z"/>
          <path class="cls-1" d="M128.7,67.2c-1.4,0-2.2,1.2-2.2,2.5v5h-.9v-8.2h.9v1.1c.5-.8,1.4-1.2,2.4-1.2s1.4.2,2,.8l-.6.6c-.6-.5-.9-.6-1.6-.6h0Z"/>
          <path class="cls-1" d="M136.7,73.9c-.6.6-1.3.9-2.3.9s-1.7-.3-2.3-.9c-.9-.9-1-2.1-1-3.3s.2-2.4,1-3.3c.6-.6,1.4-.9,2.3-.9s1.7.3,2.3.9c.9.9,1,2.1,1,3.3s0,2.4-1,3.3ZM136.2,67.9c-.5-.5-1-.7-1.7-.7s-1.2.2-1.7.7-.7,1.8-.7,2.7,0,2.1.7,2.7c.5.5,1,.7,1.7.7s1.2-.2,1.7-.7.7-1.8.7-2.7,0-2.1-.7-2.7Z"/>
          <path class="cls-1" d="M145.1,74.1c-.4.4-1.1.7-2,.7s-1.7-.2-2.4-1.2v1.1h-.9v-12.1h.9v5c.7-1,1.5-1.2,2.4-1.2s1.6.3,2,.7c.8.8,1.1,2.2,1.1,3.5s-.3,2.7-1.1,3.5ZM143,67.2c-2,0-2.3,1.7-2.3,3.4s.3,3.4,2.3,3.4,2.3-1.7,2.3-3.4-.3-3.4-2.3-3.4Z"/>
          <path class="cls-1" d="M148.2,72.6v-10h.9v10c0,.9.3,1.4,1.3,1.4h.6v.8h-.7c-1.5,0-2.1-.9-2.1-2.2h0Z"/>
          <path class="cls-1" d="M155.3,74c1,0,1.6-.3,2.3-1l.6.5c-.8.8-1.6,1.3-3,1.3-2.3,0-3.5-1.5-3.5-4.2s1.2-4.2,3.3-4.2,3.3,1.5,3.3,4v.4h-5.7c0,2.1,1,3.2,2.7,3.2h0ZM157.2,68.5c-.4-.9-1.2-1.4-2.1-1.4s-1.8.5-2.1,1.4c-.2.5-.2.7-.3,1.5h4.8c0-.7,0-1-.3-1.5h0Z"/>
          <path class="cls-1" d="M171.3,69.6c0-1.6-.8-2.4-2.3-2.4s-2.3.9-2.3,2.3v5.2h-.9v-5.1c0-1.6-.8-2.4-2.3-2.4s-2.3.9-2.3,2.4v5.1h-.9v-8.2h.9v1c.6-.7,1.4-1.1,2.4-1.1s2.1.5,2.6,1.5c.6-1,1.6-1.5,2.8-1.5s1.6.3,2.2.8c.6.5.9,1.3.9,2.3v5.2h-.8v-5.1h0Z"/>
          <path class="cls-1" d="M182,74.8c-1.8,0-2.9-.5-4-1.6l.6-.6c1.1,1.1,2,1.4,3.4,1.4s3.1-.9,3.1-2.5-.2-1.3-.7-1.7-.7-.5-1.8-.6l-1.4-.2c-.9,0-1.6-.4-2.2-.9-.6-.5-1-1.3-1-2.2,0-2,1.4-3.3,3.8-3.3s2.4.4,3.5,1.3l-.6.6c-.7-.7-1.5-1.1-2.9-1.1s-2.8,1-2.8,2.5.2,1.2.6,1.6,1.1.6,1.8.7l1.3.2c1.1.2,1.7.4,2.2.8.7.5,1.1,1.4,1.1,2.3,0,2-1.4,3.3-4,3.3h0Z"/>
          <path class="cls-1" d="M193.1,73.9c-.6.6-1.3.9-2.3.9s-1.7-.3-2.3-.9c-.9-.9-1-2.1-1-3.3s.2-2.4,1-3.3c.6-.6,1.4-.9,2.3-.9s1.7.3,2.3.9c.9.9,1,2.1,1,3.3s-.1,2.4-1,3.3ZM192.5,67.9c-.5-.5-1-.7-1.7-.7s-1.2.2-1.7.7-.7,1.8-.7,2.7.1,2.1.7,2.7,1,.7,1.7.7,1.2-.2,1.7-.7.7-1.8.7-2.7,0-2.1-.7-2.7Z"/>
          <path class="cls-1" d="M196,72.6v-10h.9v10c0,.9.3,1.4,1.3,1.4h.6v.8h-.7c-1.5,0-2.1-.9-2.1-2.2h0Z"/>
          <path class="cls-1" d="M201.4,74.7l-3-8.2h1l2.5,7.2,2.5-7.2h1l-3,8.2h-1Z"/>
          <path class="cls-1" d="M206.6,62.6h1.1v1.1h-1.1v-1.1ZM206.7,66.5h.9v8.2h-.9v-8.2Z"/>
          <path class="cls-1" d="M215.8,69.6c0-1.6-.8-2.4-2.3-2.4s-2.3.9-2.3,2.4v5.1h-.9v-8.2h.9v1c.6-.7,1.4-1.1,2.4-1.1s1.6.3,2.2.8c.6.5.8,1.3.8,2.3v5.2h-.9v-5.1h.1Z"/>
          <path class="cls-1" d="M221.5,78.7c-1.2,0-1.9-.3-2.7-1.1l.6-.6c.6.6,1.1.9,2.1.9,1.7,0,2.5-1.2,2.5-2.8v-1.5c-.7,1-1.5,1.2-2.4,1.2s-1.6-.3-2-.7c-.8-.8-1.1-2.2-1.1-3.5s.2-2.7,1.1-3.5c.4-.4,1.1-.7,2-.7s1.7.2,2.4,1.2v-1.1h.9v8.7c0,2-1.3,3.5-3.4,3.5h0ZM221.7,67.2c-2,0-2.3,1.7-2.3,3.4s.3,3.4,2.3,3.4,2.3-1.7,2.3-3.4-.3-3.4-2.3-3.4Z"/>
        </g>
        <g>
          <polygon class="cls-3" points="29.8 2.3 21.5 7 29.8 11.8 38 7 29.8 2.3"/>
          <polygon class="cls-3" points="28.4 12.5 20.2 7.8 12 12.5 20.2 17.3 28.4 12.5"/>
          <polygon class="cls-3" points="39.3 17.3 47.5 12.5 39.3 7.8 31.1 12.5 39.3 17.3"/>
          <polygon class="cls-3" points="48.9 13.3 40.6 18.1 48.9 22.8 57.1 18.1 48.9 13.3"/>
          <polygon class="cls-3" points="10.6 13.3 2.4 18.1 10.6 22.8 18.9 18.1 10.6 13.3"/>
          <polygon class="cls-1" points="10 46 1.8 41.3 1.8 50.8 10 55.5 10 46"/>
          <polygon class="cls-1" points="19.5 51.5 11.3 46.8 11.3 56.3 19.5 61.1 19.5 51.5"/>
          <polygon class="cls-1" points="10 35 1.8 30.2 1.8 39.7 10 44.5 10 35"/>
          <polygon class="cls-1" points="10 24 1.8 19.2 1.8 28.7 10 33.5 10 24"/>
          <polygon class="cls-1" points="29.1 57.1 20.9 52.3 20.9 61.8 29.1 66.6 29.1 57.1"/>
          <polygon class="cls-2" points="49.5 55.5 57.8 50.8 57.8 41.3 49.5 46 49.5 55.5"/>
          <polygon class="cls-2" points="40 61.1 48.2 56.3 48.2 46.8 40 51.5 40 61.1"/>
          <polygon class="cls-2" points="49.5 44.5 57.8 39.7 57.8 30.2 49.5 35 49.5 44.5"/>
          <polygon class="cls-2" points="57.8 19.2 49.5 24 49.5 33.5 57.8 28.7 57.8 19.2"/>
          <polygon class="cls-2" points="30.4 66.6 38.6 61.8 38.6 52.3 30.4 57.1 30.4 66.6"/>
          <polygon class="cls-3" points="29.8 46.4 21.5 51.2 29.8 55.9 38 51.2 29.8 46.4"/>
          <polygon class="cls-3" points="39.3 40.9 31.1 45.7 39.3 50.4 47.5 45.7 39.3 40.9"/>
          <polygon class="cls-3" points="20.2 40.9 12 45.7 20.2 50.4 28.4 45.7 20.2 40.9"/>
          <polygon class="cls-1" points="48.2 24 40 19.2 40 28.7 48.2 33.5 48.2 24"/>
          <polygon class="cls-1" points="38.6 18.4 30.4 13.7 30.4 23.2 38.6 28 38.6 18.4"/>
          <polygon class="cls-1" points="48.2 35 40 30.2 40 39.7 48.2 44.5 48.2 35"/>
          <polygon class="cls-2" points="19.5 19.2 11.3 24 11.3 33.5 19.5 28.7 19.5 19.2"/>
          <polygon class="cls-2" points="29.1 13.7 20.9 18.4 20.9 28 29.1 23.2 29.1 13.7"/>
          <polygon class="cls-2" points="11.3 44.5 19.5 39.7 19.5 30.2 11.3 35 11.3 44.5"/>
          <polygon class="cls-2" points="38.6 30.2 30.4 35 30.4 44.5 38.6 39.7 38.6 30.2"/>
          <polygon class="cls-1" points="20.9 39.7 29.1 44.5 29.1 35 20.9 30.2 20.9 39.7"/>
          <polygon class="cls-3" points="29.8 24.3 21.5 29.1 29.8 33.9 38 29.1 29.8 24.3"/>
        </g>
      </g>
    </g>
  </g>
</svg>