<?xml version="1.0" encoding="UTF-8"?>
<svg id="Layer_1" data-name="Layer 1" xmlns="http://www.w3.org/2000/svg" viewBox="0 0 816.27 936.76">
  <defs>
    <style>
      .cls-1 {
        fill: #1b365d;
      }

      .cls-2 {
        fill: #c5dc6f;
      }

      .cls-3 {
        fill: #61ad00;
      }
    </style>
  </defs>
  <polygon class="cls-1" points="119.31 636.72 0 568.2 0 707 119.31 775.52 119.31 636.72"/>
  <polygon class="cls-1" points="258.11 717.04 138.8 648.53 138.8 786.74 258.11 857.03 258.11 717.04"/>
  <polygon class="cls-1" points="119.31 476.65 0 406.36 0 545.17 119.31 614.86 119.31 476.65"/>
  <polygon class="cls-1" points="119.31 316 0 246.3 0 384.51 119.31 454.8 119.31 316"/>
  <polygon class="cls-1" points="398.1 798.55 278.19 728.86 278.19 867.07 398.1 936.76 398.1 798.55"/>
  <polygon class="cls-1" points="676.29 316 556.98 246.3 556.98 384.51 676.29 454.8 676.29 316"/>
  <polygon class="cls-1" points="536.31 234.49 417 165.97 417 304.77 536.31 374.47 536.31 234.49"/>
  <polygon class="cls-1" points="676.29 476.65 556.98 406.36 556.98 545.17 676.29 614.86 676.29 476.65"/>
  <g>
    <polygon class="cls-2" points="695.19 775.52 816.27 707 816.27 568.2 695.19 636.72 695.19 775.52"/>
    <polygon class="cls-2" points="556.98 857.03 676.29 786.74 676.29 648.53 556.98 717.04 556.98 857.03"/>
    <polygon class="cls-2" points="695.19 614.86 816.27 545.17 816.27 406.36 695.19 476.65 695.19 614.86"/>
    <polygon class="cls-2" points="816.27 246.3 695.19 316 695.19 454.8 816.27 384.51 816.27 246.3"/>
    <polygon class="cls-2" points="417 936.76 536.31 867.07 536.31 728.86 417 798.55 417 936.76"/>
    <polygon class="cls-2" points="258.11 246.3 138.8 316 138.8 454.8 258.11 384.51 258.11 246.3"/>
    <polygon class="cls-2" points="398.1 165.97 278.19 234.49 278.19 374.47 398.1 304.77 398.1 165.97"/>
    <polygon class="cls-2" points="138.8 614.86 258.11 545.17 258.11 406.36 138.8 476.65 138.8 614.86"/>
    <polygon class="cls-2" points="536.31 406.36 417 476.65 417 614.86 536.31 545.17 536.31 406.36"/>
  </g>
  <polygon class="cls-1" points="278.19 545.17 398.1 614.86 398.1 476.65 278.19 406.36 278.19 545.17"/>
  <g>
    <polygon class="cls-3" points="408.14 0 287.05 68.51 408.14 138.21 527.45 68.51 408.14 0"/>
    <polygon class="cls-3" points="387.46 148.84 268.15 80.33 148.84 148.84 268.15 218.54 387.46 148.84"/>
    <polygon class="cls-3" points="546.35 218.54 666.25 148.84 546.35 80.33 427.04 148.84 546.35 218.54"/>
    <polygon class="cls-3" points="686.33 160.07 565.25 230.35 686.33 298.87 806.23 230.35 686.33 160.07"/>
    <polygon class="cls-3" points="128.17 160.07 8.86 230.35 128.17 298.87 249.25 230.35 128.17 160.07"/>
    <polygon class="cls-3" points="408.14 642.62 287.05 712.91 408.14 780.83 527.45 712.91 408.14 642.62"/>
    <polygon class="cls-3" points="546.35 562.3 427.04 632.58 546.35 701.1 666.25 632.58 546.35 562.3"/>
    <polygon class="cls-3" points="268.15 562.3 148.84 632.58 268.15 701.1 387.46 632.58 268.15 562.3"/>
    <polygon class="cls-3" points="408.14 320.72 287.05 390.42 408.14 460.7 527.45 390.42 408.14 320.72"/>
  </g>
</svg>