<?xml version="1.0" encoding="UTF-8"?>
<svg id="a" xmlns="http://www.w3.org/2000/svg" viewBox="0 0 247.2 253.7">
  <defs>
    <style>
      .cls-1 {
        fill: #fff;
      }
    </style>
  </defs>
  <g>
    <path class="cls-1" d="M36.6,236h-7.1l-1.4,3.7h-1.3l5.7-15.3h1l5.7,15.3h-1.2l-1.4-3.7ZM29.8,234.9h6.4l-3.2-9-3.2,9Z"/>
    <path class="cls-1" d="M44.9,230.2c-1.8,0-2.8,1.5-2.8,3.2v6.3h-1.1v-10.3h1.1v1.4c.6-1,1.8-1.5,3-1.5,1,0,1.8.3,2.5,1l-.8.8c-.6-.8-1-.9-1.9-.9h0Z"/>
    <path class="cls-1" d="M49.7,237v-6.8h-1.4v-.8h1.4v-3.4h1.1v3.3h2.4v.8h-2.4v6.8c0,1.1.5,1.8,1.6,1.8h.8v1h-.9c-1.7-.1-2.6-1.2-2.6-2.7Z"/>
    <path class="cls-1" d="M67.3,238.6c-.8.8-1.6,1.1-2.9,1.1-1.1,0-2.1-.4-2.9-1.1-1.1-1.1-1.3-2.6-1.3-4.2,0-1.5.3-3,1.3-4.2.8-.8,1.8-1.1,2.9-1.1s2.1.4,2.9,1.1c1.1,1.1,1.3,2.6,1.3,4.2-.1,1.6-.2,3.1-1.3,4.2ZM66.5,231.1c-.6-.6-1.3-.9-2.1-.9-.9,0-1.5.3-2.1.9-.9.9-.9,2.3-.9,3.4s.1,2.6.9,3.4c.6.6,1.3.9,2.1.9.9,0,1.5-.3,2.1-.9.9-.9.9-2.3.9-3.4,0-1.2,0-2.7-.9-3.4Z"/>
    <path class="cls-1" d="M72.6,239.6h-1.1v-9.5h-1.5v-.8h1.4v-2.3c0-1.5.9-2.6,2.5-2.6h.9v1h-.8c-1.1,0-1.6.6-1.6,1.8v2.3h2.4v.8h-2.4v9.3h.2Z"/>
    <path class="cls-1" d="M87.9,233.2h-4.4v6.4h-1.1v-15.3h5.5c2.6,0,4.7,1.6,4.7,4.4s-2,4.5-4.7,4.5h0ZM87.8,225.4h-4.3v6.7h4.3c2.1,0,3.5-1,3.5-3.4s-1.3-3.3-3.5-3.3Z"/>
    <path class="cls-1" d="M98.4,230.2c-1.8,0-2.8,1.5-2.8,3.2v6.3h-1.1v-10.3h1.1v1.4c.6-1,1.8-1.5,3-1.5,1,0,1.8.3,2.5,1l-.8.8c-.6-.8-1-.9-1.9-.9h0Z"/>
    <path class="cls-1" d="M108.5,238.6c-.8.8-1.6,1.1-2.9,1.1-1.1,0-2.1-.4-2.9-1.1-1.1-1.1-1.3-2.6-1.3-4.2,0-1.5.3-3,1.3-4.2.8-.8,1.8-1.1,2.9-1.1s2.1.4,2.9,1.1c1.1,1.1,1.3,2.6,1.3,4.2-.1,1.6-.2,3.1-1.3,4.2ZM107.9,231.1c-.6-.6-1.3-.9-2.1-.9s-1.5.3-2.1.9c-.9.9-.9,2.3-.9,3.4s.1,2.6.9,3.4c.6.6,1.3.9,2.1.9s1.5-.3,2.1-.9c.9-.9.9-2.3.9-3.4-.1-1.2-.2-2.7-.9-3.4Z"/>
    <path class="cls-1" d="M119.1,238.9c-.5.5-1.4.9-2.5.9s-2.1-.3-3-1.5v1.4h-1.1v-15.3h1.1v6.3c.9-1.3,1.9-1.5,3-1.5s2,.4,2.5.9c1,1,1.4,2.8,1.4,4.4s-.4,3.4-1.4,4.4ZM116.4,230.2c-2.5,0-2.9,2.1-2.9,4.3s.4,4.3,2.9,4.3,2.9-2.1,2.9-4.3-.4-4.3-2.9-4.3Z"/>
    <path class="cls-1" d="M123,237v-12.6h1.1v12.6c0,1.1.4,1.8,1.6,1.8h.8v1h-.9c-1.9-.2-2.6-1.2-2.6-2.8h0Z"/>
    <path class="cls-1" d="M131.9,238.8c1.3,0,2-.4,2.9-1.3l.8.6c-1,1-2,1.6-3.8,1.6-2.9,0-4.4-1.9-4.4-5.3s1.5-5.3,4.2-5.3,4.2,1.9,4.2,5v.5h-7.2c-.1,2.8,1.2,4.2,3.3,4.2h0ZM134.3,231.8c-.5-1.1-1.5-1.8-2.6-1.8-1.3,0-2.3.6-2.6,1.8-.3.6-.3.9-.4,1.9h6.1c-.2-.9-.2-1.2-.5-1.9h0Z"/>
    <path class="cls-1" d="M152.1,233.2c0-2-1-3-2.9-3-1.8,0-2.9,1.1-2.9,2.9v6.6h-1.1v-6.4c0-2-1-3-2.9-3s-2.9,1.1-2.9,3v6.4h-1.1v-10.3h1.1v1.3c.8-.9,1.8-1.4,3-1.4,1.5,0,2.6.6,3.3,1.9.8-1.3,2-1.9,3.5-1.9,1.1,0,2,.4,2.8,1s1.1,1.6,1.1,2.9v6.6h-1v-6.6h0Z"/>
    <path class="cls-1" d="M165.6,239.8c-2.3,0-3.7-.6-5-2l.8-.8c1.4,1.4,2.5,1.8,4.3,1.8,2.4,0,3.9-1.1,3.9-3.2,0-.9-.3-1.6-.9-2.1-.6-.5-.9-.6-2.3-.8l-1.8-.3c-1.1-.1-2-.5-2.8-1.1s-1.3-1.6-1.3-2.8c0-2.5,1.8-4.2,4.8-4.2,1.9,0,3,.5,4.4,1.6l-.8.8c-.9-.9-1.9-1.4-3.7-1.4-2.3,0-3.5,1.3-3.5,3.2,0,.9.3,1.5.8,2s1.4.8,2.3.9l1.6.3c1.4.3,2.1.5,2.8,1,.9.6,1.4,1.8,1.4,2.9.2,2.5-1.7,4.2-5,4.2h0Z"/>
    <path class="cls-1" d="M179.6,238.6c-.8.8-1.6,1.1-2.9,1.1-1.1,0-2.1-.4-2.9-1.1-1.1-1.1-1.3-2.6-1.3-4.2,0-1.5.3-3,1.3-4.2.8-.8,1.8-1.1,2.9-1.1s2.1.4,2.9,1.1c1.1,1.1,1.3,2.6,1.3,4.2,0,1.6-.2,3.1-1.3,4.2ZM178.8,231.1c-.6-.6-1.3-.9-2.1-.9s-1.5.3-2.1.9c-.9.9-.9,2.3-.9,3.4s.1,2.6.9,3.4c.6.6,1.3.9,2.1.9s1.5-.3,2.1-.9c.9-.9.9-2.3.9-3.4,0-1.2,0-2.7-.9-3.4Z"/>
    <path class="cls-1" d="M183.2,237v-12.6h1.1v12.6c0,1.1.4,1.8,1.6,1.8h.8v1h-.9c-1.8-.2-2.6-1.2-2.6-2.8h0Z"/>
    <path class="cls-1" d="M190.1,239.6l-3.8-10.3h1.3l3.2,9.1,3.2-9.1h1.3l-3.8,10.3h-1.4Z"/>
    <path class="cls-1" d="M196.6,224.4h1.4v1.4h-1.4v-1.4ZM196.7,229.3h1.1v10.3h-1.1v-10.3Z"/>
    <path class="cls-1" d="M208.2,233.2c0-2-1-3-2.9-3s-2.9,1.1-2.9,3v6.4h-1.1v-10.3h1.1v1.3c.8-.9,1.8-1.4,3-1.4,1.1,0,2,.4,2.8,1s1,1.6,1,2.9v6.6h-1.1l.1-6.5h0Z"/>
    <path class="cls-1" d="M215.4,244.7c-1.5,0-2.4-.4-3.4-1.4l.8-.8c.8.8,1.4,1.1,2.6,1.1,2.1,0,3.2-1.5,3.2-3.5v-1.9c-.9,1.3-1.9,1.5-3,1.5s-2-.4-2.5-.9c-1-1-1.4-2.8-1.4-4.4s.3-3.4,1.4-4.4c.5-.5,1.4-.9,2.5-.9s2.1.3,3,1.5v-1.4h1.1v11c0,2.6-1.7,4.5-4.3,4.5ZM215.6,230.2c-2.5,0-2.9,2.1-2.9,4.3s.4,4.3,2.9,4.3,2.9-2.1,2.9-4.3-.3-4.3-2.9-4.3Z"/>
  </g>
  <g>
    <path class="cls-1" d="M91.6,214.4l-1.6-5.1h-10.4l-1.6,5.1h-8.5l12.2-33.2h6.4l12.2,33.2h-8.7ZM85.2,193.7l-3.2,8.8h5.8l-2.6-8.8h0Z"/>
    <path class="cls-1" d="M119.4,211.5c-1.6,1.6-4,3.2-8,3.2s-6.6-1.6-8-3.2c-2.1-2.4-2.7-4.8-2.7-9.6s.5-7.4,2.7-9.6c1.6-1.6,4-3.2,8-3.2s6.6,1.6,8,3.2c2.1,2.4,2.7,4.8,2.7,9.6s-.5,7.2-2.7,9.6ZM113.3,196.6c-.5-.5-1.1-.8-2.1-.8s-1.6.3-2.1.8c-1.1,1.1-1.1,2.7-1.1,5.3s.3,4.2,1.1,5.3c.5.5,1.1.8,2.1.8s1.6-.3,2.1-.8c1.1-1.1,1.1-2.7,1.1-5.3s0-4.5-1.1-5.3Z"/>
    <path class="cls-1" d="M139.1,202.5h-5.1v11.9h-8.2v-33.4h13.3c7.4,0,11.4,5.3,11.4,10.6s-4.2,10.9-11.4,10.9ZM138.6,188.4h-4.6v6.6h4.5c2.1,0,3.4-1.6,3.4-3.4s-1-3.2-3.3-3.2Z"/>
    <path class="cls-1" d="M164.1,214.7c-5.1,0-9.3-1.1-12.8-4.5l5.3-5.3c1.9,1.9,4.8,2.4,7.4,2.4,3.2,0,4.8-1.1,4.8-2.9,0-.8-.3-1.3-.5-1.9-.5-.5-1.1-.8-2.1-.8l-4-.5c-2.9-.5-5.3-1.3-6.6-2.9-1.6-1.6-2.4-3.7-2.4-6.6,0-6.1,4.5-10.6,12.2-10.6,4.8,0,8.5,1.1,11.2,4l-5.1,5.1c-2.1-2.1-4.8-1.9-6.4-1.9-2.9,0-4,1.6-4,3.2,0,.5.3,1.1.5,1.6.5.5,1.1.8,2.4,1.1l4,.5c2.9.5,5.1,1.3,6.6,2.7,1.9,1.9,2.4,4.2,2.4,7.2-.2,6.4-6,10.1-12.9,10.1h0Z"/>
  </g>
  <g>
    <path class="cls-1" d="M123.88,1.98L55.01,41.64v79.33l68.87,39.67,68.87-39.67V41.88L123.88,1.98h0ZM190.8,68.65l-19.95,11.44v-24.58l19.95-11.68v24.82ZM124.12,133.63l-20.93-12.17,20.93-12.17,20.93,11.92-20.93,12.17s0,.24,0,.24ZM79.1,55.76l20.93-12.17v24.34l-20.93,12.17s0-24.34,0-24.34ZM168.9,80.09l-20.93-12.17v-24.34l20.93,12.17v24.58-.24ZM101,94.94h0ZM123.88,80.33l-20.69-11.92,20.69-12.17,20.69,11.92-20.69,12.17ZM101.98,69.87l20.93,12.17v24.34l-20.93-12.17v-24.34ZM125.1,82.04l20.93-12.17v24.58l-20.93,11.92s0-24.34,0-24.34ZM146.02,66.71l-20.93-12.17v-24.34l20.93,12.17v24.34ZM122.9,54.54l-20.93,12.17v-24.34l20.93-12.17v24.34ZM100.03,70.36v24.09l-20.93,12.17v-24.09l20.93-12.17M101,96.15l20.93,12.17-20.93,12.17-20.93-11.92,20.69-12.17.24-.24ZM147,120.24l-20.93-11.92,20.93-11.92,20.69,12.17-20.69,11.92v-.24ZM147.97,94.45v-24.09l20.93,12.17v24.09s-20.93-12.17-20.93-12.17ZM170.12,53.81l-20.69-11.92,19.47-11.44,20.69,11.92s-19.47,11.44-19.47,11.44ZM147.24,40.67l-21.42-12.41,19.47-11.44,21.42,12.41-19.47,11.44ZM101,40.67l-19.95-11.68,20.93-12.17,19.71,11.44-20.93,12.17s.24.24.24.24ZM98.81,41.88l-20.93,12.17-19.95-11.68,20.93-12.17,19.95,11.68ZM76.91,55.76v24.09l-19.71-11.44v-24.34l19.71,11.44s0,.24,0,.24ZM57.2,70.84l19.71,11.44v24.09l-19.71-11.44s0-24.09,0-24.09ZM100.03,121.95v22.63l-20.93-12.17v-22.63l20.93,12.17ZM101.98,123.17l20.93,12.17v22.63l-20.93-12.17v-22.63ZM125.1,135.33l20.93-12.17v22.63l-20.93,12.17s0-22.63,0-22.63ZM147.97,121.95l20.93-12.17v22.63l-20.93,12.17s0-22.63,0-22.63ZM171.09,82.28l19.95-11.44v24.09l-19.95,11.44v-24.09ZM143.35,15.6l-19.95,11.68-19.47-11.44,19.95-11.44,19.47,11.19ZM57.2,97.37l19.71,11.44v22.63l-19.71-11.44s0-22.63,0-22.63ZM171.09,131.44v-22.63l19.95-11.44v22.63l-19.95,11.44Z"/>
    <path class="cls-1" d="M124.12,161.86l-69.84-40.4V41.15L123.88,1l69.84,40.4v80.31l-69.84,40.4s.24-.24.24-.24ZM55.98,120.49l67.9,39.18,67.9-39.18V42.37L123.63,3.19,55.74,42.37v78.36s.24-.24.24-.24ZM123.88,159.42l-22.88-13.14v-24.58l22.88,13.14v24.58ZM102.95,145.31l19.22,10.95v-20.44l-19.22-10.95v20.44ZM124.12,159.42v-24.58l22.88-13.14v24.58s-22.88,13.14-22.88,13.14ZM126.07,135.82v20.44l19.22-10.95v-20.44l-19.22,10.95h0ZM147.24,146.28v-24.58l22.88-13.14v24.58s-22.88,13.14-22.88,13.14ZM148.94,122.68v20.44l19.22-10.95v-20.44l-19.22,10.95ZM101,146.04l-22.88-13.14v-24.58l22.88,13.14v24.58ZM80.07,131.93l19.22,10.95v-20.44l-19.22-10.95s0,20.44,0,20.44ZM124.12,134.6l-22.88-13.14,22.88-13.14,22.88,13.14s-22.88,13.14-22.88,13.14ZM104.9,121.46l19.22,10.95,19.22-10.95-19.22-10.95s-19.22,10.95-19.22,10.95ZM170.12,132.9v-24.58l21.66-12.41v24.58s-21.66,12.41-21.66,12.41ZM172.06,109.29v20.44l18.01-10.46v-20.44s-18.01,10.46-18.01,10.46ZM77.88,132.9l-21.66-12.41v-24.58l21.66,12.41v24.58ZM58.17,119.27l18.01,10.46v-20.44l-18.01-10.46s0,20.44,0,20.44ZM101,121.22l-22.63-13.14,22.63-13.14,22.88,13.14-22.88,13.14ZM82.02,108.32l18.98,10.95,19.22-10.95-19.22-10.95s-18.98,10.95-18.98,10.95ZM147,121.22l-22.88-13.14,22.63-13.14,22.63,13.14-22.63,12.9s.24.24.24.24ZM128.02,108.32l19.22,10.95,18.98-10.95-18.98-10.95-18.98,10.95h-.24ZM169.87,108.08l-22.88-13.38v-26.28l22.88,13.14s0,26.53,0,26.53ZM148.94,93.96l19.22,11.19v-22.15l-19.22-11.19v22.15ZM78.13,108.08v-26.04l22.88-13.38v26.04l-22.88,13.38ZM80.07,83.01v21.9l19.22-11.19v-21.9s-19.22,11.19-19.22,11.19ZM124.12,108.08v-26.53l22.88-13.38v26.53l-22.88,13.14s0,.24,0,.24ZM126.07,82.53v22.15l19.22-10.95v-22.39l-19.22,11.19h0ZM170.12,108.08v-26.04l21.66-12.41v26.04s-21.66,12.41-21.66,12.41ZM172.06,83.01v21.9l18.01-10.46v-21.9l-18.01,10.46ZM123.88,108.08l-22.88-13.14v-26.53l22.88,13.38v26.28ZM102.95,93.72l19.22,10.95v-22.15l-19.22-11.19v22.39ZM77.88,107.83l-21.66-12.41v-26.04l21.66,12.41v26.28-.24ZM58.17,94.45l18.01,10.46v-21.9l-18.01-10.22v21.9s0-.24,0-.24ZM78.13,81.79v-26.53l22.88-13.38v26.53l-22.88,13.38ZM80.07,56.24v22.15l19.22-11.19v-22.15s-19.22,11.19-19.22,11.19ZM170.12,81.55v-26.53l21.66-12.65v26.77l-21.66,12.41ZM172.06,56v22.39l18.01-10.46v-22.63l-18.01,10.46v.24ZM169.87,81.55l-22.88-13.14v-26.53l22.88,13.14s0,26.53,0,26.53ZM148.94,67.19l19.22,11.19v-22.39l-19.22-10.95v22.39-.24ZM77.88,81.55l-21.66-12.41v-26.53l21.66,12.65v26.28ZM58.17,67.92l18.01,10.22v-22.15l-18.01-10.46s0,22.39,0,22.39ZM123.88,81.31l-22.39-13.14,22.63-13.14,22.39,13.14-22.63,13.14h0ZM105.14,68.41l18.74,10.95,18.98-10.95-18.74-10.95-18.98,10.95h0ZM101,68.41v-26.53l22.88-13.38v26.53l-22.88,13.38ZM102.95,42.86v22.15l19.22-11.19v-22.15l-19.22,11.19ZM147,68.17l-22.88-13.14v-26.53l22.88,13.14v26.53ZM126.07,53.81l19.22,11.19v-22.39l-19.22-10.95v22.15h0ZM78.13,55.03l-21.9-12.65,22.88-13.14,21.66,12.65-22.63,13.14h0ZM59.88,42.37l18.25,10.46,18.98-11.19-18.01-10.46-19.22,10.95s0,.24,0,.24ZM170.12,54.78l-22.63-13.14,21.42-12.41,22.63,12.9-21.42,12.41s0,.24,0,.24ZM151.13,41.64l18.98,10.95,17.76-10.46-18.98-10.95s-17.76,10.46-17.76,10.46ZM101,41.64l-21.66-12.65,22.88-13.14,21.42,12.65-22.63,13.14ZM82.99,29.23l18.01,10.46,18.98-11.19-18.01-10.46-19.22,10.95.24.24ZM147.24,41.64l-23.12-13.38,21.42-12.41,23.12,13.38-21.42,12.41ZM127.77,28.26l19.47,11.19,17.76-10.46-19.47-11.19-17.76,10.22v.24ZM123.63,28.26l-21.42-12.41,21.66-12.41,21.42,12.41-21.66,12.65s0-.24,0-.24ZM105.87,15.85l17.76,10.22,18.01-10.46-17.76-10.22-18.01,10.46h0Z"/>
  </g>
</svg>